{
    "accessors" : [
        {
            "bufferView" : 0,
            "componentType" : 5123,
            "count" : 215922,
            "max" : [
                38945
            ],
            "min" : [
                0
            ],
            "type" : "SCALAR"
        },
        {
            "bufferView" : 1,
            "componentType" : 5126,
            "count" : 38946,
            "max" : [
                0.10000000149011612,
                0.11169999837875366,
                0.05270000174641609
            ],
            "min" : [
                -0.11590000241994858,
                -0.0010000000474974513,
                -0.05270000174641609
            ],
            "type" : "VEC3"
        },
        {
            "bufferView" : 2,
            "componentType" : 5126,
            "count" : 38946,
            "max" : [
                1.0,
                1.0,
                1.0
            ],
            "min" : [
                -1.0,
                -1.0,
                -1.0
            ],
            "type" : "VEC3"
        },
        {
            "bufferView" : 3,
            "componentType" : 5126,
            "count" : 38946,
            "max" : [
                1.0,
                1.0,
                1.0,
                1.0
            ],
            "min" : [
                -1.0,
                -1.0,
                -1.0,
                -1.0
            ],
            "type" : "VEC4"
        },
        {
            "bufferView" : 4,
            "componentType" : 5126,
            "count" : 38946,
            "max" : [
                0.9843999743461609,
                0.9926999998278916
            ],
            "min" : [
                0.010200000368058681,
                0.014999985694885254
            ],
            "type" : "VEC2"
        }
    ],
    "asset" : {
        "generator" : "Khronos Blender glTF 2.0 exporter",
        "version" : "2.0"
    },
    "bufferViews" : [
        {
            "buffer" : 0,
            "byteLength" : 431844,
            "byteOffset" : 0,
            "target" : 34963
        },
        {
            "buffer" : 0,
            "byteLength" : 467352,
            "byteOffset" : 431844,
            "target" : 34962
        },
        {
            "buffer" : 0,
            "byteLength" : 467352,
            "byteOffset" : 899196,
            "target" : 34962
        },
        {
            "buffer" : 0,
            "byteLength" : 623136,
            "byteOffset" : 1366548,
            "target" : 34962
        },
        {
            "buffer" : 0,
            "byteLength" : 311568,
            "byteOffset" : 1989684,
            "target" : 34962
        }
    ],
    "buffers" : [
        {
            "byteLength" : 2301252,
            "uri" : "hormiga.bin"
        }
    ],
    "images" : [
        {
            "name" : "10001_Ant_v1_Diffuse",
            "uri" : "10001_Ant_v1_Diffuse.jpg"
        },
        {
            "name" : "10001_Ant_v1_Diffuse.jpg",
            "uri" : "10001_Ant_v1_Diffuse.jpg.jpg"
        }
    ],
    "materials" : [
        {
            "alphaMode" : "BLEND",
            "name" : "10001_Ant_v1",
            "occlusionTexture" : {
                "index" : 0
            },
            "pbrMetallicRoughness" : {
                "baseColorFactor" : [
                    0.5879999995231628,
                    0.5879999995231628,
                    0.5879999995231628,
                    1.0
                ],
                "baseColorTexture" : {
                    "index" : 1
                },
                "metallicFactor" : 0.0
            }
        }
    ],
    "meshes" : [
        {
            "name" : "10001_Ant_v1",
            "primitives" : [
                {
                    "attributes" : {
                        "NORMAL" : 2,
                        "POSITION" : 1,
                        "TANGENT" : 3,
                        "TEXCOORD_0" : 4
                    },
                    "indices" : 0,
                    "material" : 0
                }
            ]
        }
    ],
    "nodes" : [
        {
            "mesh" : 0,
            "name" : "10001_Ant_v1",
            "rotation" : [
                -0.009689360857009888,
                0.9153682589530945,
                0.022068746387958527,
                0.4018957316875458
            ],
            "scale" : [
                5.421196937561035,
                5.421196937561035,
                5.421196937561035
            ]
        },
        {
            "name" : "Camera",
            "rotation" : [
                0.48170700669288635,
                0.3342514932155609,
                -0.21292175352573395,
                0.7816000580787659
            ],
            "scale" : [
                1.0,
                1.0,
                0.9999999403953552
            ],
            "translation" : [
                7.481131553649902,
                5.34366512298584,
                6.5076398849487305
            ]
        },
        {
            "name" : "Lamp",
            "rotation" : [
                0.16907575726509094,
                0.7558802962303162,
                -0.27217137813568115,
                0.570947527885437
            ],
            "scale" : [
                1.0,
                1.0,
                0.9999999403953552
            ],
            "translation" : [
                4.076245307922363,
                5.903861999511719,
                -1.0054539442062378
            ]
        }
    ],
    "samplers" : [
        {}
    ],
    "scene" : 0,
    "scenes" : [
        {
            "name" : "Scene",
            "nodes" : [
                0,
                2,
                1
            ]
        }
    ],
    "textures" : [
        {
            "sampler" : 0,
            "source" : 0
        },
        {
            "sampler" : 0,
            "source" : 1
        }
    ]
}
